<svg width="100" height="100" viewBox="0 0 1024 1024" xmlns="http://www.w3.org/2000/svg">
  <circle cx="512" cy="512" r="512" fill="#28a745"/>
  <g fill="#ffffff">
    <path d="M640 480h-96v-96c0-17.664-14.336-32-32-32s-32 14.336-32 32v96h-96c-17.664 0-32 14.336-32 32s14.336 32 32 32h96v96c0 17.664 14.336 32 32 32s32-14.336 32-32v-96h96c17.664 0 32-14.336 32-32s-14.336-32-32-32z"/>
    <path d="M640 736h-256c-17.664 0-32 14.336-32 32s14.336 32 32 32h256c17.664 0 32-14.336 32-32s-14.336-32-32-32z"/>
  </g>
</svg>
